<?xml version="1.0" standalone="no"?><!DOCTYPE svg PUBLIC "-//W3C//DTD SVG 1.1//EN" "http://www.w3.org/Graphics/SVG/1.1/DTD/svg11.dtd"><svg t="1656300279342" class="icon" viewBox="0 0 1024 1024" version="1.1" xmlns="http://www.w3.org/2000/svg" p-id="4223" xmlns:xlink="http://www.w3.org/1999/xlink" width="128" height="128"><defs><style type="text/css"></style></defs><path d="M512 427.216761m-427.216761 0a427.216761 427.216761 0 1 0 854.433522 0 427.216761 427.216761 0 1 0-854.433522 0Z" fill="#FDBF5E" p-id="4224"></path><path d="M480.025786 107.062047c-134.497985 14.439968-257.650282 142.336825-268.789686 278.485092-8.045125 112.012893 43.113618 212.886382 128.103143 272.09025 23.929089 17.534247 40.019339 44.7639 40.019339 75.294118v175.961321c0 16.09025 12.789686 28.879936 28.879935 28.879936h212.886382c16.09025 0 28.879936-12.789686 28.879936-28.879936v-175.961321c0-30.323932 14.439968-57.553586 40.019339-75.294118 78.388396-54.459307 128.103143-145.637389 128.103143-247.954875-0.412571-179.261886-155.745367-321.804996-338.101531-302.620467z" fill="#FFFFFF" p-id="4225"></path><path d="M436.705882 820.809025v-89.5278c0-48.064464-23.929089-94.478646-63.948428-121.7083-71.993554-51.158743-110.362611-132.847703-103.967768-219.281225 8.045125-107.268332 108.918614-212.886382 215.98066-224.025785 9.695407-1.650282 19.184529-1.650282 28.879936-1.650282 135.941982 0 244.860596 110.362611 244.860596 244.860596 0 80.038678-38.369057 153.682514-103.967768 200.096696-40.019339 28.879936-63.948429 73.643836-63.948428 123.152297v88.083803h-153.8888z" fill="#2EA2DB" p-id="4226"></path><path d="M443.100725 937.772764c0 38.369057 31.974214 70.343272 70.343272 70.343271s70.343272-31.974214 70.343271-70.343271h-140.686543z" fill="#FFFFFF" p-id="4227"></path><path d="M515.300564 91.178082c-12.789686 0-23.929089 0-36.718775 1.650282-142.336825 16.09025-272.09025 148.731668-283.229654 291.274779-8.25141 113.45689 41.463336 220.725222 134.291701 286.323932 20.834811 14.439968 33.624496 38.369057 33.624496 62.504432v175.961321c0 23.929089 20.834811 44.7639 44.7639 44.7639h20.628525c7.426269 40.225624 42.494762 70.343272 84.989525 70.343272s77.563255-30.117647 84.989525-70.343272H620.918614c23.929089 0 44.7639-20.834811 46.414182-43.113618v-175.961321c0-23.929089 12.789686-48.064464 33.624497-62.504432 83.132957-60.85415 134.497985-156.776793 134.497985-260.744561-0.206285-177.817889-144.193392-320.154714-320.154714-320.154714z m-24.135375 577.598711v-51.158743h48.064465v51.158743c0 12.789686-11.139404 23.929089-23.92909 23.929089s-24.135375-11.139404-24.135375-23.929089z m143.987108 168.122482v25.579371H393.592264v-25.579371h241.560033z m-121.502015 156.776793c-25.579371 0-46.414182-17.534247-52.809025-40.01934h107.268332c-6.601128 22.485093-28.879936 40.019339-54.459307 40.01934z m107.268332-70.343272H408.032232c-8.045125 0-14.439968-6.394843-14.439968-14.439968v-14.439967h241.560033v14.439967c0 8.045125-6.394843 14.439968-14.233683 14.439968z m60.647865-278.485093c-28.879936 20.834811-46.414182 54.459307-46.414182 88.083804v71.993553h-105.61805v-85.60838c22.485093-6.807413 38.369057-27.229654 38.369057-51.983884v-49.508461h11.139403c8.045125 0 16.09025-8.045125 16.09025-16.09025 0-9.695407-8.045125-16.09025-16.09025-16.090249H449.495568c-9.695407 0-16.09025 8.045125-16.09025 16.090249 0 9.695407 8.045125 16.09025 16.09025 16.09025h9.695407v49.508461c0 24.75423 16.09025 45.382756 38.369057 51.983884v85.60838h-103.967768v-71.993553c0-35.274778-17.534247-67.248993-46.414182-88.083804-84.783239-59.203868-129.547139-155.126511-121.7083-257.650282 9.695407-129.547139 126.452861-249.605157 254.349718-264.045124 11.139404-1.650282 22.485093-1.650282 33.624497-1.650282 160.077357 0 289.624496 129.547139 289.624496 287.974214 0.206285 92.828364-44.557615 180.912168-121.502014 235.371474z" fill="#193651" p-id="4228"></path><path d="M644.847703 359.967768c0 65.598711-59.203868 169.566479-132.847703 169.566479s-132.847703-103.967768-132.847703-169.566479 59.203868-123.152297 132.847703-123.152297 132.847703 55.903304 132.847703 123.152297z" fill="#FFFFFF" p-id="4229"></path><path d="M651.242546 281.579371c-19.184529-36.718775-56.109589-60.85415-112.012892-71.993553-52.809025-11.139404-86.433521 9.695407-99.223208 25.579371-25.579371-3.300564-43.113618 6.394843-52.809025 16.09025-33.624496 30.323932-27.229654 97.572925-25.579371 108.918614 1.650282 20.834811 6.394843 46.414182 17.534247 71.993554 0.618856 1.237712 1.237712 2.062853 1.856567 3.094279 24.75423 56.52216 73.02498 108.918614 130.991136 108.918614 74.468977 0 132.847703-86.227236 146.04996-157.189364 10.933118-41.050766 8.870266-76.531829-6.807414-105.411765zM512 513.650282c-63.948429 0-118.407736-94.478646-118.407736-153.682514s54.459307-108.918614 118.407736-108.918614 118.407736 49.508461 118.407736 108.918614c0 59.203868-54.459307 153.682514-118.407736 153.682514z" fill="#193651" p-id="4230"></path><path d="M539.229654 236.402901c-57.553586-11.139404-83.132957 16.09025-88.083804 25.579371-1.650282 1.650282-3.300564 1.650282-4.744561 3.300564-69.10556-3.91942-58.172442 75.500403-54.665592 104.999195 2.475423 20.628525 15.471394 47.033038 24.960516 69.51813 0-17.534247-20.00967-99.223207 26.404512-86.433521 0 0 56.109589 40.019339 132.847704 0 0 0 25.785657-21.041096 33.830781 81.482675 8.045125-24.34166 80.244964-163.584206-70.549556-198.446414z" fill="#E1E6E9" p-id="4231"></path><path d="M864.128928 395.242546h30.323933v30.323933h-30.323933zM132.641418 395.242546H162.965351v30.323933H132.641418zM851.704367 233.382885l-26.264238 15.15784-15.159903-26.262175 26.264238-15.159904zM218.435455 599.962095l-26.260113 15.166092-15.164029-26.260113 26.260113-15.166092zM718.010894 89.57112l-15.159903 26.264239-26.262176-15.159904 15.157841-26.262175zM499.210314 30.323932h30.323933v30.323933H499.210314zM352.912812 100.328896l-26.264238 15.159903L311.490733 89.224561l26.262176-15.157841zM217.843417 222.746817l-15.157841 26.264239-26.264238-15.159904 15.15784-26.262175zM852.133441 588.408058l-15.159904 26.262176-26.264238-15.157841 15.159903-26.264238z" fill="#193651" p-id="4232"></path></svg>